# xmcd CD database file
#
# Track frame offsets:
#	150
#	96612
#	187900
#
# Disc length: 2895 seconds
#
# Revision: 0
# Processed by: cddbd v1.5.2PL0 Copyright (c) Steve Scherf et al.
# Submitted via: CDex 1.51
#
DISCID=210b4d03
DTITLE=Kövi Szabolcs - Megaptera
DYEAR=1998
DGENRE=New Age
TTITLE0=Megaptera I.
TTITLE1=Megaptera II.
TTITLE2=Kék bolygó
EXTD=YEAR: 1998
EXTT0=
EXTT1=
EXTT2=
PLAYORDER=
